{
    "asset" : {
        "generator" : "Khronos glTF Blender I/O v1.8.19",
        "version" : "2.0"
    },
    "scene" : 0,
    "scenes" : [
        {
            "name" : "Scene",
            "nodes" : [
                5
            ]
        }
    ],
    "nodes" : [
        {
            "mesh" : 0,
            "name" : "Cube.008",
            "rotation" : [
                0.040374986827373505,
                0,
                0,
                0.9991846084594727
            ],
            "scale" : [
                0.06256098300218582,
                0.06256099045276642,
                0.06256099045276642
            ],
            "translation" : [
                0.2898830473423004,
                1.4451544284820557,
                0.09778912365436554
            ]
        },
        {
            "mesh" : 1,
            "name" : "Cube.009",
            "rotation" : [
                -0.15106628835201263,
                -0.09920688718557358,
                0.9834148287773132,
                0.0152396559715271
            ],
            "scale" : [
                0.0500805526971817,
                0.048092421144247055,
                0.0322970449924469
            ],
            "translation" : [
                -0.05176825076341629,
                0.740797221660614,
                0.28216132521629333
            ]
        },
        {
            "mesh" : 2,
            "name" : "Cube.010",
            "rotation" : [
                0,
                0.15183305740356445,
                0,
                0.9884061813354492
            ],
            "scale" : [
                0.0500805526971817,
                0.04809241741895676,
                0.0322970412671566
            ],
            "translation" : [
                0.04740718752145767,
                0.9479520320892334,
                0.40073496103286743
            ]
        },
        {
            "mesh" : 3,
            "name" : "Cube.011",
            "scale" : [
                0.5630715489387512,
                0.5630715489387512,
                0.5630715489387512
            ],
            "translation" : [
                0,
                0.9186773896217346,
                0
            ]
        },
        {
            "mesh" : 4,
            "name" : "Cylinder",
            "rotation" : [
                0.6650308966636658,
                0.04553772881627083,
                -0.045063845813274384,
                0.7440628409385681
            ],
            "translation" : [
                0.043516188859939575,
                1.400856614112854,
                0.4071469008922577
            ]
        },
        {
            "children" : [
                0,
                1,
                2,
                3,
                4
            ],
            "name" : "Empty.004",
            "scale" : [
                1.2046453952789307,
                1.2046453952789307,
                1.2046453952789307
            ]
        }
    ],
    "materials" : [
        {
            "doubleSided" : true,
            "name" : "Material.002",
            "pbrMetallicRoughness" : {
                "baseColorFactor" : [
                    0.02365081012248993,
                    0.02365081012248993,
                    0.02365081012248993,
                    1
                ],
                "metallicFactor" : 0,
                "roughnessFactor" : 0.20000000298023224
            }
        },
        {
            "doubleSided" : true,
            "name" : "gigi",
            "pbrMetallicRoughness" : {
                "baseColorFactor" : [
                    0.6209050416946411,
                    0.6209050416946411,
                    0.6209050416946411,
                    1
                ],
                "metallicFactor" : 0,
                "roughnessFactor" : 0.30000001192092896
            }
        },
        {
            "doubleSided" : true,
            "name" : "Material.001",
            "pbrMetallicRoughness" : {
                "baseColorTexture" : {
                    "index" : 0
                },
                "metallicFactor" : 0,
                "roughnessFactor" : 0.30000001192092896
            }
        },
        {
            "doubleSided" : true,
            "name" : "Material.003",
            "pbrMetallicRoughness" : {
                "baseColorFactor" : [
                    0.09462597221136093,
                    0.09462597221136093,
                    0.09462597221136093,
                    1
                ],
                "metallicFactor" : 0,
                "roughnessFactor" : 0.5
            }
        },
        {
            "doubleSided" : true,
            "name" : "Material.004",
            "pbrMetallicRoughness" : {
                "baseColorFactor" : [
                    0.33716365694999695,
                    0.423267662525177,
                    0.9046612977981567,
                    1
                ],
                "metallicFactor" : 0,
                "roughnessFactor" : 0.5
            }
        }
    ],
    "meshes" : [
        {
            "name" : "Cube.008",
            "primitives" : [
                {
                    "attributes" : {
                        "POSITION" : 0,
                        "NORMAL" : 1,
                        "TEXCOORD_0" : 2
                    },
                    "indices" : 3,
                    "material" : 0
                }
            ]
        },
        {
            "name" : "Cube.009",
            "primitives" : [
                {
                    "attributes" : {
                        "POSITION" : 4,
                        "NORMAL" : 5,
                        "TEXCOORD_0" : 6
                    },
                    "indices" : 7,
                    "material" : 1
                }
            ]
        },
        {
            "name" : "Cube.010",
            "primitives" : [
                {
                    "attributes" : {
                        "POSITION" : 8,
                        "NORMAL" : 9,
                        "TEXCOORD_0" : 10
                    },
                    "indices" : 7
                }
            ]
        },
        {
            "name" : "Cube.011",
            "primitives" : [
                {
                    "attributes" : {
                        "POSITION" : 11,
                        "NORMAL" : 12,
                        "TEXCOORD_0" : 13
                    },
                    "indices" : 14,
                    "material" : 2
                },
                {
                    "attributes" : {
                        "POSITION" : 15,
                        "NORMAL" : 16,
                        "TEXCOORD_0" : 17
                    },
                    "indices" : 18,
                    "material" : 3
                },
                {
                    "attributes" : {
                        "POSITION" : 19,
                        "NORMAL" : 20,
                        "TEXCOORD_0" : 21
                    },
                    "indices" : 22,
                    "material" : 4
                }
            ]
        },
        {
            "name" : "Cylinder",
            "primitives" : [
                {
                    "attributes" : {
                        "POSITION" : 23,
                        "NORMAL" : 24,
                        "TEXCOORD_0" : 25
                    },
                    "indices" : 26,
                    "material" : 3
                }
            ]
        }
    ],
    "textures" : [
        {
            "sampler" : 0,
            "source" : 0
        }
    ],
    "images" : [
        {
            "bufferView" : 15,
            "mimeType" : "image/png",
            "name" : "Material.001 Base Color"
        }
    ],
    "accessors" : [
        {
            "bufferView" : 0,
            "componentType" : 5126,
            "count" : 250,
            "max" : [
                0.699588418006897,
                1.0850366353988647,
                0.6900196075439453
            ],
            "min" : [
                -9.966805458068848,
                -0.8646923303604126,
                -0.5623643398284912
            ],
            "type" : "VEC3"
        },
        {
            "bufferView" : 1,
            "componentType" : 5126,
            "count" : 250,
            "type" : "VEC3"
        },
        {
            "bufferView" : 2,
            "componentType" : 5126,
            "count" : 250,
            "type" : "VEC2"
        },
        {
            "bufferView" : 3,
            "componentType" : 5123,
            "count" : 1152,
            "type" : "SCALAR"
        },
        {
            "bufferView" : 4,
            "componentType" : 5126,
            "count" : 2637,
            "max" : [
                3.7340049743652344,
                1.4884111881256104,
                1.0915570259094238
            ],
            "min" : [
                -3.7893714904785156,
                -0.9637236595153809,
                -7.3170084953308105
            ],
            "type" : "VEC3"
        },
        {
            "bufferView" : 5,
            "componentType" : 5126,
            "count" : 2637,
            "type" : "VEC3"
        },
        {
            "bufferView" : 6,
            "componentType" : 5126,
            "count" : 2637,
            "type" : "VEC2"
        },
        {
            "bufferView" : 7,
            "componentType" : 5123,
            "count" : 12672,
            "type" : "SCALAR"
        },
        {
            "bufferView" : 8,
            "componentType" : 5126,
            "count" : 2637,
            "max" : [
                4.081403732299805,
                1.6632106304168701,
                -0.17088671028614044
            ],
            "min" : [
                -3.3864691257476807,
                -0.9637235403060913,
                -9.362751007080078
            ],
            "type" : "VEC3"
        },
        {
            "bufferView" : 9,
            "componentType" : 5126,
            "count" : 2637,
            "type" : "VEC3"
        },
        {
            "bufferView" : 10,
            "componentType" : 5126,
            "count" : 2637,
            "type" : "VEC2"
        },
        {
            "bufferView" : 11,
            "componentType" : 5126,
            "count" : 11938,
            "max" : [
                0.7572541236877441,
                1.389121174812317,
                0.8401139378547668
            ],
            "min" : [
                -0.7572541832923889,
                -1.6315598487854004,
                -1.2841646671295166
            ],
            "type" : "VEC3"
        },
        {
            "bufferView" : 12,
            "componentType" : 5126,
            "count" : 11938,
            "type" : "VEC3"
        },
        {
            "bufferView" : 13,
            "componentType" : 5126,
            "count" : 11938,
            "type" : "VEC2"
        },
        {
            "bufferView" : 14,
            "componentType" : 5123,
            "count" : 61824,
            "type" : "SCALAR"
        },
        {
            "bufferView" : 16,
            "componentType" : 5126,
            "count" : 1224,
            "max" : [
                0.4254438877105713,
                0.18104596436023712,
                0.7142433524131775
            ],
            "min" : [
                -0.4254439175128937,
                -0.33078622817993164,
                -0.019991401582956314
            ],
            "type" : "VEC3"
        },
        {
            "bufferView" : 17,
            "componentType" : 5126,
            "count" : 1224,
            "type" : "VEC3"
        },
        {
            "bufferView" : 18,
            "componentType" : 5126,
            "count" : 1224,
            "type" : "VEC2"
        },
        {
            "bufferView" : 19,
            "componentType" : 5123,
            "count" : 6144,
            "type" : "SCALAR"
        },
        {
            "bufferView" : 20,
            "componentType" : 5126,
            "count" : 4265,
            "max" : [
                1.0273914337158203,
                -0.1475149244070053,
                -0.00672539696097374
            ],
            "min" : [
                -1.0273915529251099,
                -1.2602016925811768,
                -0.4731214940547943
            ],
            "type" : "VEC3"
        },
        {
            "bufferView" : 21,
            "componentType" : 5126,
            "count" : 4265,
            "type" : "VEC3"
        },
        {
            "bufferView" : 22,
            "componentType" : 5126,
            "count" : 4265,
            "type" : "VEC2"
        },
        {
            "bufferView" : 23,
            "componentType" : 5123,
            "count" : 22272,
            "type" : "SCALAR"
        },
        {
            "bufferView" : 24,
            "componentType" : 5126,
            "count" : 1110,
            "max" : [
                0.020321471616625786,
                0.02647876739501953,
                0.03235819935798645
            ],
            "min" : [
                -0.10983064770698547,
                -0.002135723829269409,
                -0.035709649324417114
            ],
            "type" : "VEC3"
        },
        {
            "bufferView" : 25,
            "componentType" : 5126,
            "count" : 1110,
            "type" : "VEC3"
        },
        {
            "bufferView" : 26,
            "componentType" : 5126,
            "count" : 1110,
            "type" : "VEC2"
        },
        {
            "bufferView" : 27,
            "componentType" : 5123,
            "count" : 3888,
            "type" : "SCALAR"
        }
    ],
    "bufferViews" : [
        {
            "buffer" : 0,
            "byteLength" : 3000,
            "byteOffset" : 0
        },
        {
            "buffer" : 0,
            "byteLength" : 3000,
            "byteOffset" : 3000
        },
        {
            "buffer" : 0,
            "byteLength" : 2000,
            "byteOffset" : 6000
        },
        {
            "buffer" : 0,
            "byteLength" : 2304,
            "byteOffset" : 8000
        },
        {
            "buffer" : 0,
            "byteLength" : 31644,
            "byteOffset" : 10304
        },
        {
            "buffer" : 0,
            "byteLength" : 31644,
            "byteOffset" : 41948
        },
        {
            "buffer" : 0,
            "byteLength" : 21096,
            "byteOffset" : 73592
        },
        {
            "buffer" : 0,
            "byteLength" : 25344,
            "byteOffset" : 94688
        },
        {
            "buffer" : 0,
            "byteLength" : 31644,
            "byteOffset" : 120032
        },
        {
            "buffer" : 0,
            "byteLength" : 31644,
            "byteOffset" : 151676
        },
        {
            "buffer" : 0,
            "byteLength" : 21096,
            "byteOffset" : 183320
        },
        {
            "buffer" : 0,
            "byteLength" : 143256,
            "byteOffset" : 204416
        },
        {
            "buffer" : 0,
            "byteLength" : 143256,
            "byteOffset" : 347672
        },
        {
            "buffer" : 0,
            "byteLength" : 95504,
            "byteOffset" : 490928
        },
        {
            "buffer" : 0,
            "byteLength" : 123648,
            "byteOffset" : 586432
        },
        {
            "buffer" : 0,
            "byteLength" : 100896,
            "byteOffset" : 710080
        },
        {
            "buffer" : 0,
            "byteLength" : 14688,
            "byteOffset" : 810976
        },
        {
            "buffer" : 0,
            "byteLength" : 14688,
            "byteOffset" : 825664
        },
        {
            "buffer" : 0,
            "byteLength" : 9792,
            "byteOffset" : 840352
        },
        {
            "buffer" : 0,
            "byteLength" : 12288,
            "byteOffset" : 850144
        },
        {
            "buffer" : 0,
            "byteLength" : 51180,
            "byteOffset" : 862432
        },
        {
            "buffer" : 0,
            "byteLength" : 51180,
            "byteOffset" : 913612
        },
        {
            "buffer" : 0,
            "byteLength" : 34120,
            "byteOffset" : 964792
        },
        {
            "buffer" : 0,
            "byteLength" : 44544,
            "byteOffset" : 998912
        },
        {
            "buffer" : 0,
            "byteLength" : 13320,
            "byteOffset" : 1043456
        },
        {
            "buffer" : 0,
            "byteLength" : 13320,
            "byteOffset" : 1056776
        },
        {
            "buffer" : 0,
            "byteLength" : 8880,
            "byteOffset" : 1070096
        },
        {
            "buffer" : 0,
            "byteLength" : 7776,
            "byteOffset" : 1078976
        }
    ],
    "samplers" : [
        {
            "magFilter" : 9729,
            "minFilter" : 9987
        }
    ],
    "buffers" : [
        {
            "byteLength" : 1086752,
            "uri" : "data:application/octet-stream;base64,"
        }
    ]
}
