<svg id="Layer_1" data-name="Layer 1" xmlns="http://www.w3.org/2000/svg" xmlns:xlink="http://www.w3.org/1999/xlink" viewBox="0 0 2000 2000"><defs><style>.cls-1{fill:url(#radial-gradient);}</style><radialGradient id="radial-gradient" cx="2231.29" cy="415.71" r="1441.53" gradientUnits="userSpaceOnUse"><stop offset="0" stop-color="#5ec3ad"/><stop offset="1" stop-color="#29aae1"/></radialGradient></defs><path class="cls-1" d="M1692.57,989.38a22,22,0,0,1,0,38.12l-59.21,34.19-11.44,6.6-26.11,34.11q-4.55,17.73-10.59,34.81a411.2,411.2,0,0,1-388.17,274.41H832.9a26.13,26.13,0,0,1-22.69-39.1l33.71-59a26.13,26.13,0,0,0-22.69-39.1h-258a26.13,26.13,0,0,1-22.7-39.09L589,1150.38a26.12,26.12,0,0,1,22.7-13.17h461.93a26.13,26.13,0,0,1,22.69,39.09l-33.7,59a26.13,26.13,0,0,0,22.7,39.09h129l.34-.57v0A274.49,274.49,0,0,0,1441.92,876c-2.27-4.48-4.68-8.88-7.18-13.22a274.85,274.85,0,0,0-157-125.15,284.84,284.84,0,0,0-43-9.49,292.2,292.2,0,0,0-39.45-2.89,26.11,26.11,0,0,0-22.8,13.18l-63.5,111.18a26.11,26.11,0,0,1-22.69,13.17H798.34a26.13,26.13,0,0,1-22.7-39.09l48.51-84.94a26.13,26.13,0,0,1,22.69-13.17h143.7a26.13,26.13,0,0,0,22.69-13.17l63.34-110.87a26.16,26.16,0,0,1,22.7-13.17h97.78a410.65,410.65,0,0,1,306.73,137.21c5,5.52,9.79,11.14,14.36,16.94a410.07,410.07,0,0,1,80,164.64c.53,2.31,1,4.61,1.52,6.93a56.21,56.21,0,0,0,26.82,37.15l6.86,4Z"/><path class="cls-1" d="M762.42,764.33l-48.53,84.93a26.13,26.13,0,0,1-22.69,13.17H504a26.14,26.14,0,0,1-22.69-39.1l48.53-84.94a26.13,26.13,0,0,1,22.69-13.17H739.73A26.14,26.14,0,0,1,762.42,764.33Z"/><path class="cls-1" d="M513.25,970.5l-48.53,84.93A26.13,26.13,0,0,1,442,1068.6H322.6a26.13,26.13,0,0,1-22.69-39.1l48.53-84.93a26.11,26.11,0,0,1,22.69-13.17H490.55A26.14,26.14,0,0,1,513.25,970.5Z"/><path class="cls-1" d="M532.12,1176.67l-48.53,84.94a26.13,26.13,0,0,1-22.69,13.17H373.22a26.14,26.14,0,0,1-22.69-39.11l48.52-84.93a26.16,26.16,0,0,1,22.7-13.17h87.68A26.13,26.13,0,0,1,532.12,1176.67Z"/><path class="cls-1" d="M979.34,970.5l-48.52,84.93a26.14,26.14,0,0,1-22.7,13.17H543.18a26.13,26.13,0,0,1-22.69-39.1L569,944.57a26.11,26.11,0,0,1,22.69-13.17H956.65A26.13,26.13,0,0,1,979.34,970.5Z"/></svg>